<svg id="Capa_1" enable-background="new 0 0 512 512" height="512" viewBox="0 0 512 512" width="512" xmlns="http://www.w3.org/2000/svg"><g><path d="m387.03 251.03v103.95l-12.7 13.35h-235.33l-14.03-13.35v-103.95c0-36.19 14.67-68.94 38.38-92.65 23.71-23.72 56.47-38.38 92.65-38.38 72.36 0 131.03 58.66 131.03 131.03z" fill="#ff641a"/><path d="m387.03 251.03v103.95l-12.7 13.35h-118.33v-248.33c72.36 0 131.03 58.66 131.03 131.03z" fill="#ea0016"/><path d="m124.97 354.98h262.06v92.02h-262.06z" fill="#48588b"/><path d="m256 354.98h131.03v92.02h-131.03z" fill="#3c4a83"/><path d="m241 0h30v72.03h-30z" fill="#fbe200"/><path d="m256 0h15v72.03h-15z" fill="#febf01"/><g><path d="m305.354 34.676h72.033v30h-72.033z" fill="#febf01" transform="matrix(.372 -.928 .928 .372 168.35 348.115)"/><path d="m376.269 81.01h72.033v30h-72.033z" fill="#febf01" transform="matrix(.674 -.739 .739 .674 63.554 335.976)"/><g fill="#fbe200"><path d="m155.63 13.66h30v72.033h-30z" transform="matrix(.928 -.372 .372 .928 -6.238 66.996)"/><path d="m84.714 59.994h30v72.033h-30z" transform="matrix(.739 -.674 .674 .739 -38.658 92.251)"/></g></g><path d="m241 183h30v81.33h-30z" fill="#fbe200"/><path d="m256 183h15v81.33h-15z" fill="#febf01"/><path d="m422.76 458.98v53.02h-333.52v-53.02c0-19.76 16.02-35.78 35.78-35.78h261.96c19.76 0 35.78 16.02 35.78 35.78z" fill="#f3f6ff"/><path d="m422.76 458.98v53.02h-166.76v-88.8h130.98c19.76 0 35.78 16.02 35.78 35.78z" fill="#cddbf9"/><path d="m241 285h30v30h-30z" fill="#fbe200"/><path d="m256 285h15v30h-15z" fill="#febf01"/></g></svg>