<svg id="Layer_1" enable-background="new 0 0 512 512" height="512" viewBox="0 0 512 512" width="512" xmlns="http://www.w3.org/2000/svg"><g><g id="XMLID_56_"><g><g id="XMLID_1448_"><g id="XMLID_1453_"><g id="XMLID_1454_"><g id="XMLID_1455_"><g id="XMLID_1456_"><g id="XMLID_1457_"><g id="XMLID_1458_"><g id="XMLID_1459_"><g id="XMLID_1460_"><g id="XMLID_1461_"><g id="XMLID_1462_"><g id="XMLID_1463_"><g id="XMLID_1464_"><g id="XMLID_1465_"><circle cx="256" cy="256" fill="#fedd55" r="256"/></g></g></g></g></g></g></g></g></g></g></g></g></g></g></g></g><path d="m512 256c0-34.234-6.737-66.89-18.929-96.738l-64.318-64.318-341.155 330.047 65.441 65.441c31.508 13.859 66.332 21.568 102.961 21.568 141.385 0 256-114.615 256-256z" fill="#fcc63d"/><g><g><path d="m402.116 432.736h-292.232c-19.896 0-36.174-16.278-36.174-36.174v-238.624c0-19.896 16.278-36.174 36.174-36.174h292.231c19.896 0 36.174 16.278 36.174 36.174v238.625c0 19.895-16.278 36.173-36.173 36.173z" fill="#fff"/><path d="m438.29 157.94v238.62c0 19.9-16.28 36.18-36.17 36.18h-146.12v-310.98h146.12c19.89 0 36.17 16.28 36.17 36.18z" fill="#eae1dc"/><path d="m438.289 173.93h-364.578v-52.166c0-23.472 19.028-42.5 42.5-42.5h279.579c23.472 0 42.5 19.028 42.5 42.5v52.166z" fill="#5eefee"/><g><path d="m438.29 121.76v52.17h-182.29v-94.67h139.79c23.47 0 42.5 19.03 42.5 42.5z" fill="#54c9fc"/></g></g><g><circle cx="190.5" cy="126.597" fill="#ff807d" r="16"/><circle cx="129.25" cy="126.597" fill="#fdb556" r="16"/></g><g><path d="m128 339.164h128v30h-128z" fill="#776d6b"/></g><g><path d="m128 230.453h128v30h-128z" fill="#776d6b"/></g><path d="m383.412 227.56-21.213-21.213-17.894 17.893-17.893-17.893-21.214 21.213 17.894 17.893-17.894 17.894 21.214 21.213 17.893-17.893 17.894 17.893 21.213-21.213-17.894-17.894z" fill="#fc3e53"/><path d="m389.529 338.597-21.213-21.214-31.375 31.375-16.646-16.647-21.213 21.213 37.62 37.62.239-.24.24.24z" fill="#0768dd"/></g></g></svg>