<svg id="Layer_1" height="512" viewBox="0 0 512 512" width="512" xmlns="http://www.w3.org/2000/svg" data-name="Layer 1"><path d="m242.04 420.877a43.6 43.6 0 0 0 -23.24-30.33l-50.97-21.76v-1.331a90.774 90.774 0 0 1 -76.89 0v1.331l-50.97 21.76a43.613 43.613 0 0 0 -23.97 35.4v55.42h226.77v-55.42a40.427 40.427 0 0 0 -.73-5.07z" fill="#50a6ea"/><path d="m69.97 390.547 39.347-16.8a90.624 90.624 0 0 1 -18.377-6.292v1.331l-50.97 21.76a43.613 43.613 0 0 0 -23.97 35.401v55.42h30v-55.42a43.613 43.613 0 0 1 23.97-35.4z" fill="#72bcef"/><path d="m496 69.047v331.83a19.994 19.994 0 0 1 -20 20h-233.96a43.6 43.6 0 0 0 -23.24-30.33l-32.76-13.98v-58.78l-.01-.01a80.886 80.886 0 0 0 22.14-55.71v-10.28a20.834 20.834 0 0 0 16.61-25.48 15.668 15.668 0 0 0 -14.02-11.94h-1.96v-31.65a82.608 82.608 0 0 0 -22.76-57.04v-56.63a20 20 0 0 1 20-20h49.41v15.97h181.14v-15.97h39.41a20 20 0 0 1 20 20z" fill="#e5f5fd"/><circle cx="287.87" cy="171.917" fill="#49c160" r="60"/><path d="m247.87 171.916a60.017 60.017 0 0 1 50-59.154 60 60 0 1 0 0 118.309 60.008 60.008 0 0 1 -50-59.155z" fill="#5ae070"/><path d="m208.8 214.367v.92s-70.81 12.48-118.29-29.83a249.9 249.9 0 0 1 -29.32.74l-2.21 36.27a1.677 1.677 0 0 1 -2.44 1.36l-9.8-5.03a6.788 6.788 0 0 1 -3.66-5.55v-30.53a82.86 82.86 0 0 1 165.72 0z" fill="#4a5160"/><path d="m87.35 124.127a82.6 82.6 0 0 1 48.66-23.658 83.661 83.661 0 0 0 -10.07-.612 82.863 82.863 0 0 0 -82.86 82.86v30.53a6.788 6.788 0 0 0 3.66 5.55l9.8 5.03a1.678 1.678 0 0 0 2.44-1.36s-4.307-65.667 28.37-98.34z" fill="#58606d"/><path d="m167.83 332.247v35.21a90.781 90.781 0 0 1 -76.89 0v-32.59a81.284 81.284 0 0 0 76.89-2.62z" fill="#efc597"/><path d="m110.94 367.456v-25.767a80.7 80.7 0 0 1 -20-6.822v32.589a90.763 90.763 0 0 0 48.445 7.989 90.7 90.7 0 0 1 -28.445-7.989z" fill="#d8ad82"/><path d="m167.83 332.247a81.2 81.2 0 0 1 -122.08-70.18v-10.28a20.876 20.876 0 0 1 -16.62-25.48 15.68 15.68 0 0 1 14.03-11.94l.09-.02a6.772 6.772 0 0 0 3.49 4.45l9.8 5.03a1.677 1.677 0 0 0 2.44-1.36l2.21-36.27a249.9 249.9 0 0 0 29.32-.74c47.48 42.31 118.29 29.83 118.29 29.83v-.92h1.96a15.668 15.668 0 0 1 14.02 11.94 20.834 20.834 0 0 1 -16.61 25.48v10.28a80.886 80.886 0 0 1 -22.14 55.71c-.53.58-1.09 1.15-1.65 1.71a81.27 81.27 0 0 1 -16.55 12.76z" fill="#ffd8b7"/><path d="m110.94 334.867a81.206 81.206 0 0 1 -45.19-72.8v-10.28a20.876 20.876 0 0 1 -16.62-25.48 15.765 15.765 0 0 1 2.267-5.12l-4.657-2.387a6.772 6.772 0 0 1 -3.49-4.45l-.09.02a15.68 15.68 0 0 0 -14.03 11.94 20.838 20.838 0 0 0 16.62 25.48v10.28a81.17 81.17 0 0 0 81.21 81.21 82.043 82.043 0 0 0 9.984-.618 80.73 80.73 0 0 1 -26.004-7.795z" fill="#e8bc9e"/><path d="m255.45 30.637h181.14v34.38h-181.14z" fill="#475673"/><g fill="#284268"><path d="m476 43.051h-33.415v-12.417a6 6 0 0 0 -6-6h-181.132a6 6 0 0 0 -6 6v12.417h-43.415a26.027 26.027 0 0 0 -26 26v43.232a88.807 88.807 0 0 0 -142.955 70.434v26.893a21.454 21.454 0 0 0 -13.778 15.269 26.863 26.863 0 0 0 16.445 31.452v5.738a87.274 87.274 0 0 0 45.194 76.4v26.359l-47.333 20.2c-.111.048-.22.1-.327.152a49.92 49.92 0 0 0 -27.263 40.268c-.014.165-.021.332-.021.5v55.421a6 6 0 0 0 6 6h226.769a6 6 0 0 0 6-6v-54.491h227.231a26.028 26.028 0 0 0 26-26v-331.829a26.028 26.028 0 0 0 -26-25.998zm-214.547-6.417h169.132v22.385h-169.132zm-212.37 146.083a76.856 76.856 0 1 1 153.712 0v27.316c-14.868 1.607-60.255 4.032-96.7-20.134 25.042-3.338 55.568-11.026 78.208-28.389a6 6 0 1 0 -7.3-9.521c-41.187 31.589-114.766 28.257-115.5 28.218a6.008 6.008 0 0 0 -6.3 5.627l-1.8 29.633-3.915-2.01a.762.762 0 0 1 -.4-.519zm2.667 79.352v-10.281a6 6 0 0 0 -4.965-5.911 14.848 14.848 0 0 1 -11.825-18.142 9.348 9.348 0 0 1 5.344-6.49 12.668 12.668 0 0 0 3.7 2.888l9.8 5.031a7.676 7.676 0 0 0 11.16-6.217c0-.038.006-.075.008-.113l1.857-30.485c4.9.046 12.478-.034 21.69-.676 49.005 41.688 118.357 30.048 121.323 29.527a5.979 5.979 0 0 0 1.776-.629 9.506 9.506 0 0 1 7.343 7.164 14.844 14.844 0 0 1 -11.824 18.142 6 6 0 0 0 -4.965 5.911v10.281a75.209 75.209 0 0 1 -150.417 0zm128.291 69.14v36.269l-6.216-2.652v-29.242q3.207-2.052 6.216-4.375zm-18.216 10.791v21.542a85.4 85.4 0 0 1 -64.881 0v-19.588a87.19 87.19 0 0 0 64.881-1.954zm74.944 133.371h-214.769v-49.171a37.86 37.86 0 0 1 20.5-30.21l49.964-21.324a97.348 97.348 0 0 0 73.851 0l49.965 21.325a37.856 37.856 0 0 1 20.489 30.209zm253.231-74.491a14.013 14.013 0 0 1 -14 14h-229.348a49.945 49.945 0 0 0 -25.167-29.7c-.107-.055-.216-.1-.327-.152l-29.117-12.428v-52.548a86.854 86.854 0 0 0 22.126-57.983v-5.738a26.861 26.861 0 0 0 16.445-31.45 21.5 21.5 0 0 0 -15.817-15.9v-26.264a88.506 88.506 0 0 0 -22.754-59.317v-54.351a14.013 14.013 0 0 1 14-14h43.415v9.968a6 6 0 0 0 6 6h181.129a6 6 0 0 0 6-6v-9.966h33.415a14.013 14.013 0 0 1 14 14z"/><path d="m446.584 221.686h-43.866a6 6 0 0 0 0 12h43.866a6 6 0 0 0 0-12z"/><path d="m362.157 233.686h14.715a6 6 0 0 0 0-12h-14.715a6 6 0 0 0 0 12z"/><path d="m446.584 286.582h-14.895a6 6 0 1 0 0 12h14.895a6 6 0 0 0 0-12z"/><path d="m410.937 298.582a6 6 0 0 0 0-12h-79.459a6 6 0 1 0 0 12z"/><path d="m310.437 286.582h-5.361a6 6 0 0 0 0 12h5.361a6 6 0 0 0 0-12z"/><path d="m245.212 286.582a6 6 0 0 0 0 12h34.018a6 6 0 0 0 0-12z"/><path d="m446.584 346.563h-34.335a6 6 0 0 0 0 12h34.335a6 6 0 0 0 0-12z"/><path d="m390.714 346.563h-4.314a6 6 0 0 0 0 12h4.311a6 6 0 1 0 0-12z"/><path d="m369.514 346.563h-32.614a6 6 0 0 0 0 12h32.615a6 6 0 0 0 0-12z"/><path d="m310.437 346.563h-65.225a6 6 0 0 0 0 12h65.225a6 6 0 0 0 0-12z"/><path d="m446.584 170.6h-3.872a6 6 0 0 0 0 12h3.872a6 6 0 0 0 0-12z"/><path d="m374.339 182.6h42.528a6 6 0 0 0 0-12h-42.528a6 6 0 0 0 0 12z"/><path d="m446.584 120.6h-42.867a6 6 0 0 0 0 12h42.867a6 6 0 0 0 0-12z"/><path d="m374.339 132.6h3.533a6 6 0 0 0 0-12h-3.533a6 6 0 0 0 0 12z"/><path d="m287.875 237.92a66 66 0 1 0 -66-66 66.075 66.075 0 0 0 66 66zm0-120a54 54 0 1 1 -54 54 54.062 54.062 0 0 1 54-54z"/><path d="m270.268 198.079a6 6 0 0 0 8.485 0l43.832-43.832a6 6 0 0 0 -8.485-8.485l-39.589 39.589-12.862-12.861a6 6 0 1 0 -8.485 8.484z"/></g></svg>