<svg id="Capa_1" enable-background="new 0 0 512 512" height="512" viewBox="0 0 512 512" width="512" xmlns="http://www.w3.org/2000/svg"><g><g><g><g><g><path d="m356.725 497.647v-439.634c0-7.927-6.426-14.353-14.353-14.353h-271.025c-17.55 0-31.776 14.227-31.776 31.776v404.788c0 17.55 14.227 31.776 31.776 31.776h271.025c7.927 0 14.353-6.426 14.353-14.353z" fill="#d6a889"/><path d="m385.036 43.659h-47.815c7.927 0 14.353 6.426 14.353 14.353v439.634c0 7.927-6.426 14.353-14.353 14.353h47.815c17.55 0 31.776-14.227 31.776-31.776v-404.787c0-17.55-14.226-31.777-31.776-31.777z" fill="#cc9675"/><path d="m356.725 79.845h-270.767c-5.634 0-10.201 4.567-10.201 10.201v375.566c0 5.634 4.568 10.202 10.202 10.202h270.767v-395.969z" fill="#f4fbff"/><path d="m370.425 79.845h-18.851v395.97h18.85c5.635 0 10.202-4.568 10.202-10.202v-375.566c.001-5.634-4.567-10.202-10.201-10.202z" fill="#e4f6ff"/><path d="m238.947 0h-38.323c-7.774 0-14.076 6.302-14.076 14.076v10.32c0 3.179-2.577 5.756-5.756 5.756h-22.947c-7.633 0-13.822 6.188-13.822 13.822v35.872h107.09v-67.68c0-6.719-5.447-12.166-12.166-12.166z" fill="#4a80aa"/><g><path d="m298.538 30.152h-22.947c-3.179 0-5.756-2.577-5.756-5.756v-10.32c0-7.774-6.302-14.076-14.076-14.076h-20.804c6.719 0 12.166 5.447 12.166 12.166v67.679h65.238v-35.871c.001-7.634-6.188-13.822-13.821-13.822z" fill="#407093"/></g></g><g><g><g><path d="m212.518 248.516h-79.967c-8.656 0-15.674-7.017-15.674-15.674v-99.158c0-8.656 7.017-15.674 15.674-15.674h79.967c8.656 0 15.674 7.017 15.674 15.674v99.158c0 8.657-7.018 15.674-15.674 15.674z" fill="#bed8fb"/><path d="m172.534 198.45c-25.35 0-46.928 16.128-55.049 38.68 1.867 6.569 7.897 11.386 15.065 11.386h79.967c7.168 0 13.198-4.817 15.065-11.386-8.12-22.552-29.698-38.68-55.048-38.68z" fill="#4a80aa"/><circle cx="172.534" cy="179.365" fill="#365e7d" r="24.966"/></g><g><g><path d="m339.507 293.438h-222.119c-4.267 0-7.726-3.459-7.726-7.726s3.459-7.726 7.726-7.726h222.118c4.267 0 7.726 3.459 7.726 7.726s-3.458 7.726-7.725 7.726z" fill="#407093"/></g><g><path d="m339.507 336.179h-222.119c-4.267 0-7.726-3.459-7.726-7.726s3.459-7.726 7.726-7.726h222.118c4.267 0 7.726 3.459 7.726 7.726s-3.458 7.726-7.725 7.726z" fill="#407093"/></g><g><path d="m250.856 378.922h-133.468c-4.267 0-7.726-3.459-7.726-7.726s3.459-7.726 7.726-7.726h133.467c4.267 0 7.726 3.459 7.726 7.726s-3.458 7.726-7.725 7.726z" fill="#407093"/></g><g><path d="m250.856 421.663h-133.468c-4.267 0-7.726-3.459-7.726-7.726s3.459-7.726 7.726-7.726h133.467c4.267 0 7.726 3.459 7.726 7.726s-3.458 7.726-7.725 7.726z" fill="#407093"/></g></g></g><g><g><path d="m339.507 226.931h-72.512c-4.267 0-7.726-3.459-7.726-7.726s3.459-7.726 7.726-7.726h72.512c4.267 0 7.726 3.459 7.726 7.726s-3.459 7.726-7.726 7.726z" fill="#407093"/></g><g><path d="m339.507 190.051h-72.512c-4.267 0-7.726-3.459-7.726-7.726s3.459-7.726 7.726-7.726h72.512c4.267 0 7.726 3.459 7.726 7.726s-3.459 7.726-7.726 7.726z" fill="#407093"/></g></g></g></g></g></g><g><path d="m415.346 413.603c0-23.465-9.208-44.78-24.207-60.528-3.847-4.039-9.476-5.928-14.977-5.007-39.046 6.54-68.802 40.493-68.802 81.398 0 26.351 12.349 49.818 31.576 64.929 4.429 3.481 10.337 4.47 15.696 2.735 35.233-11.409 60.714-44.493 60.714-83.527z" fill="#8fddc1"/><path d="m389.894 346.929c-4.582 0-9.077.374-13.456 1.092 18.756 15.13 30.753 38.301 30.753 64.274 0 41.001-29.897 75.019-69.079 81.444 14.16 11.422 32.172 18.261 51.782 18.261 45.583 0 82.535-36.952 82.535-82.535s-36.952-82.536-82.535-82.536z" fill="#77ceaf"/><g><g><path d="m380.23 465.474c-3.143 0-6.304-1.002-8.97-3.059l-26.375-20.354c-3.378-2.607-4.004-7.459-1.396-10.837 2.607-3.379 7.46-4.002 10.837-1.396l25.81 19.919 46.042-53.198c2.793-3.226 7.672-3.577 10.898-.786 3.226 2.793 3.578 7.672.786 10.898l-46.509 53.737c-2.895 3.344-6.993 5.076-11.123 5.076z" fill="#f4fbff"/></g></g></g></g></svg>